<svg xmlns="http://www.w3.org/2000/svg" xmlns:xlink="http://www.w3.org/1999/xlink" width="500" zoomAndPan="magnify" viewBox="0 0 375 374.999991" height="500" preserveAspectRatio="xMidYMid meet" version="1.0"><defs><g/><clipPath id="e25125c010"><path d="M 15.46875 0 L 359.71875 0 L 359.71875 375 L 15.46875 375 Z M 15.46875 0 " clip-rule="nonzero"/></clipPath></defs><g clip-path="url(#e25125c010)"><path fill="#2196f3" d="M 357.546875 2.5625 C 356.804688 1.746094 355.925781 1.113281 354.917969 0.667969 C 353.90625 0.222656 352.851562 0 351.746094 0 L 23.441406 0 C 22.894531 -0.00390625 22.351562 0.0507812 21.816406 0.164062 C 21.277344 0.273438 20.761719 0.441406 20.257812 0.660156 C 19.757812 0.878906 19.285156 1.148438 18.839844 1.46875 C 18.394531 1.789062 17.988281 2.152344 17.617188 2.558594 C 17.25 2.960938 16.929688 3.402344 16.652344 3.875 C 16.375 4.347656 16.152344 4.84375 15.980469 5.363281 C 15.808594 5.882812 15.691406 6.414062 15.632812 6.960938 C 15.574219 7.503906 15.570312 8.050781 15.625 8.59375 L 46.890625 321.09375 C 46.964844 321.84375 47.144531 322.566406 47.429688 323.265625 C 47.714844 323.964844 48.089844 324.609375 48.558594 325.195312 C 49.03125 325.785156 49.574219 326.296875 50.191406 326.726562 C 50.808594 327.160156 51.476562 327.496094 52.191406 327.734375 L 192.894531 374.609375 C 193.710938 374.875 194.550781 375.003906 195.410156 375 C 196.359375 375 197.273438 374.832031 198.160156 374.5 L 323.230469 327.625 C 323.914062 327.371094 324.554688 327.027344 325.140625 326.597656 C 325.730469 326.164062 326.25 325.660156 326.699219 325.082031 C 327.144531 324.507812 327.503906 323.878906 327.777344 323.199219 C 328.046875 322.523438 328.222656 321.820312 328.296875 321.09375 L 359.5625 8.59375 C 359.667969 7.492188 359.546875 6.414062 359.195312 5.363281 C 358.84375 4.3125 358.292969 3.378906 357.546875 2.5625 Z M 357.546875 2.5625 " fill-opacity="1" fill-rule="nonzero"/></g><path fill="#fafafa" d="M 195.410156 296.875 C 194.566406 296.875 193.742188 296.742188 192.941406 296.484375 L 122.589844 273.046875 C 121.9375 272.828125 121.324219 272.53125 120.75 272.152344 C 120.175781 271.773438 119.664062 271.328125 119.207031 270.8125 C 118.75 270.300781 118.371094 269.734375 118.0625 269.121094 C 117.757812 268.503906 117.535156 267.859375 117.398438 267.1875 L 109.582031 228.125 C 109.480469 227.621094 109.425781 227.113281 109.425781 226.601562 C 109.421875 226.085938 109.46875 225.578125 109.566406 225.074219 C 109.664062 224.570312 109.808594 224.082031 110.003906 223.605469 C 110.199219 223.132812 110.4375 222.679688 110.71875 222.253906 C 111.003906 221.824219 111.324219 221.425781 111.6875 221.0625 C 112.046875 220.699219 112.441406 220.371094 112.867188 220.085938 C 113.292969 219.796875 113.742188 219.554688 114.214844 219.355469 C 114.6875 219.15625 115.175781 219.007812 115.679688 218.902344 C 116.183594 218.800781 116.691406 218.75 117.203125 218.746094 C 117.71875 218.742188 118.226562 218.789062 118.730469 218.886719 C 119.234375 218.984375 119.722656 219.132812 120.199219 219.328125 C 120.675781 219.519531 121.125 219.757812 121.554688 220.042969 C 121.984375 220.324219 122.378906 220.648438 122.746094 221.007812 C 123.109375 221.371094 123.433594 221.761719 123.722656 222.1875 C 124.011719 222.613281 124.253906 223.0625 124.453125 223.535156 C 124.648438 224.007812 124.800781 224.496094 124.902344 225 L 131.828125 259.609375 L 195.253906 280.78125 L 251.003906 259.890625 L 279.925781 93.75 L 101.609375 93.75 C 101.097656 93.75 100.585938 93.699219 100.085938 93.601562 C 99.582031 93.5 99.09375 93.351562 98.617188 93.15625 C 98.144531 92.960938 97.695312 92.71875 97.265625 92.433594 C 96.839844 92.148438 96.445312 91.824219 96.082031 91.460938 C 95.71875 91.097656 95.394531 90.703125 95.109375 90.277344 C 94.824219 89.851562 94.585938 89.402344 94.386719 88.925781 C 94.191406 88.453125 94.042969 87.964844 93.941406 87.460938 C 93.84375 86.957031 93.792969 86.449219 93.792969 85.9375 C 93.792969 85.425781 93.84375 84.917969 93.941406 84.414062 C 94.042969 83.910156 94.191406 83.421875 94.386719 82.949219 C 94.585938 82.472656 94.824219 82.023438 95.109375 81.597656 C 95.394531 81.171875 95.71875 80.777344 96.082031 80.414062 C 96.445312 80.050781 96.839844 79.726562 97.265625 79.441406 C 97.695312 79.15625 98.144531 78.914062 98.617188 78.71875 C 99.09375 78.523438 99.582031 78.375 100.085938 78.273438 C 100.585938 78.175781 101.097656 78.125 101.609375 78.125 L 289.210938 78.125 C 289.78125 78.125 290.347656 78.1875 290.902344 78.308594 C 291.460938 78.429688 291.996094 78.613281 292.515625 78.851562 C 293.03125 79.09375 293.515625 79.386719 293.96875 79.734375 C 294.421875 80.082031 294.832031 80.472656 295.199219 80.90625 C 295.566406 81.34375 295.882812 81.816406 296.148438 82.320312 C 296.410156 82.824219 296.617188 83.355469 296.765625 83.90625 C 296.914062 84.453125 297 85.015625 297.027344 85.585938 C 297.054688 86.152344 297.015625 86.71875 296.917969 87.28125 L 265.652344 266.96875 C 265.535156 267.640625 265.332031 268.28125 265.046875 268.898438 C 264.761719 269.515625 264.402344 270.085938 263.96875 270.609375 C 263.53125 271.132812 263.039062 271.59375 262.484375 271.988281 C 261.929688 272.382812 261.332031 272.699219 260.695312 272.9375 L 198.160156 296.375 C 197.273438 296.707031 196.359375 296.875 195.410156 296.875 Z M 195.410156 296.875 " fill-opacity="1" fill-rule="nonzero"/><path fill="#fafafa" d="M 273.578125 171.875 L 109.425781 171.875 C 108.914062 171.875 108.40625 171.824219 107.902344 171.726562 C 107.398438 171.625 106.910156 171.476562 106.433594 171.28125 C 105.960938 171.085938 105.511719 170.84375 105.082031 170.558594 C 104.65625 170.273438 104.261719 169.949219 103.898438 169.585938 C 103.535156 169.222656 103.210938 168.828125 102.925781 168.402344 C 102.640625 167.976562 102.402344 167.527344 102.203125 167.050781 C 102.007812 166.578125 101.859375 166.089844 101.757812 165.585938 C 101.660156 165.082031 101.609375 164.574219 101.609375 164.0625 C 101.609375 163.550781 101.660156 163.042969 101.757812 162.539062 C 101.859375 162.035156 102.007812 161.546875 102.203125 161.074219 C 102.402344 160.597656 102.640625 160.148438 102.925781 159.722656 C 103.210938 159.296875 103.535156 158.902344 103.898438 158.539062 C 104.261719 158.175781 104.65625 157.851562 105.082031 157.566406 C 105.511719 157.28125 105.960938 157.039062 106.433594 156.84375 C 106.910156 156.648438 107.398438 156.5 107.902344 156.398438 C 108.40625 156.300781 108.914062 156.25 109.425781 156.25 L 273.578125 156.25 C 274.089844 156.25 274.601562 156.300781 275.101562 156.398438 C 275.605469 156.5 276.09375 156.648438 276.570312 156.84375 C 277.042969 157.039062 277.492188 157.28125 277.921875 157.566406 C 278.347656 157.851562 278.742188 158.175781 279.105469 158.539062 C 279.46875 158.902344 279.792969 159.296875 280.078125 159.722656 C 280.363281 160.148438 280.601562 160.597656 280.800781 161.074219 C 280.996094 161.546875 281.144531 162.035156 281.246094 162.539062 C 281.34375 163.042969 281.394531 163.550781 281.394531 164.0625 C 281.394531 164.574219 281.34375 165.082031 281.246094 165.585938 C 281.144531 166.089844 280.996094 166.578125 280.800781 167.050781 C 280.601562 167.527344 280.363281 167.976562 280.078125 168.402344 C 279.792969 168.828125 279.46875 169.222656 279.105469 169.585938 C 278.742188 169.949219 278.347656 170.273438 277.921875 170.558594 C 277.492188 170.84375 277.042969 171.085938 276.570312 171.28125 C 276.09375 171.476562 275.605469 171.625 275.101562 171.726562 C 274.601562 171.824219 274.089844 171.875 273.578125 171.875 Z M 273.578125 171.875 " fill-opacity="1" fill-rule="nonzero"/><g fill="#000000" fill-opacity="1"><g transform="translate(192.746697, 186.384768)"><g><path d="M 0.125 0 C 0.113281 0 0.101562 -0.00390625 0.09375 -0.015625 C 0.0820312 -0.0234375 0.078125 -0.0351562 0.078125 -0.046875 C 0.078125 -0.0664062 0.0820312 -0.0820312 0.09375 -0.09375 C 0.101562 -0.101562 0.113281 -0.109375 0.125 -0.109375 C 0.144531 -0.109375 0.160156 -0.101562 0.171875 -0.09375 C 0.179688 -0.0820312 0.1875 -0.0664062 0.1875 -0.046875 C 0.1875 -0.0351562 0.179688 -0.0234375 0.171875 -0.015625 C 0.160156 -0.00390625 0.144531 0 0.125 0 Z M 0.125 0 "/></g></g></g></svg>