<svg xmlns="http://www.w3.org/2000/svg" xmlns:xlink="http://www.w3.org/1999/xlink" width="500" zoomAndPan="magnify" viewBox="0 0 375 374.999991" height="500" preserveAspectRatio="xMidYMid meet" version="1.0"><defs><g/><clipPath id="cf64f4f56a"><path d="M 27.871094 6 L 351.871094 6 L 351.871094 375 L 27.871094 375 Z M 27.871094 6 " clip-rule="nonzero"/></clipPath></defs><g clip-path="url(#cf64f4f56a)"><path fill="#e44d26" d="M 57.285156 337.328125 L 27.777344 6.386719 L 351.960938 6.386719 L 322.433594 337.28125 L 189.664062 374.074219 Z M 57.285156 337.328125 " fill-opacity="1" fill-rule="nonzero"/></g><path fill="#f16529" d="M 297.148438 316.207031 L 322.390625 33.449219 L 189.871094 33.449219 L 189.871094 345.957031 Z M 297.148438 316.207031 " fill-opacity="1" fill-rule="nonzero"/><path fill="#ebebeb" d="M 189.734375 74.03125 L 88.097656 74.03125 L 99.046875 196.773438 L 189.871094 196.773438 L 189.871094 156.191406 L 136.167969 156.191406 L 132.457031 114.628906 L 189.871094 114.628906 L 189.871094 74.03125 Z M 189.871094 261.46875 L 189.699219 261.511719 L 144.5 249.308594 L 141.628906 216.941406 L 100.863281 216.941406 L 106.550781 280.667969 L 189.6875 303.648438 L 189.871094 303.589844 Z M 189.871094 261.46875 " fill-opacity="1" fill-rule="nonzero"/><path fill="#ffffff" d="M 189.734375 196.773438 L 239.710938 196.773438 L 235.117188 249.402344 L 189.847656 261.617188 L 189.847656 303.84375 L 273.054688 280.78125 L 284.199219 156.167969 L 189.871094 156.167969 Z M 290.425781 84.925781 L 291.390625 74.03125 L 189.710938 74.03125 L 189.710938 114.617188 L 287.738281 114.617188 L 288.542969 105.496094 Z M 290.425781 84.925781 " fill-opacity="1" fill-rule="nonzero"/><g fill="#000000" fill-opacity="1"><g transform="translate(192.746697, 186.384768)"><g><path d="M 0.125 0 C 0.113281 0 0.101562 -0.00390625 0.09375 -0.015625 C 0.0820312 -0.0234375 0.078125 -0.0351562 0.078125 -0.046875 C 0.078125 -0.0664062 0.0820312 -0.0820312 0.09375 -0.09375 C 0.101562 -0.101562 0.113281 -0.109375 0.125 -0.109375 C 0.144531 -0.109375 0.160156 -0.101562 0.171875 -0.09375 C 0.179688 -0.0820312 0.1875 -0.0664062 0.1875 -0.046875 C 0.1875 -0.0351562 0.179688 -0.0234375 0.171875 -0.015625 C 0.160156 -0.00390625 0.144531 0 0.125 0 Z M 0.125 0 "/></g></g></g></svg>