<svg xmlns="http://www.w3.org/2000/svg" xmlns:xlink="http://www.w3.org/1999/xlink" width="500" zoomAndPan="magnify" viewBox="0 0 375 374.999991" height="500" preserveAspectRatio="xMidYMid meet" version="1.0"><defs><g/></defs><path fill="#4e7896" d="M 140.128906 287.230469 C 140.128906 287.230469 125.851562 295.914062 150.054688 298.398438 C 179.1875 302.113281 194.710938 301.496094 226.957031 295.296875 C 233.453125 299.277344 240.273438 302.585938 247.421875 305.222656 C 174.871094 336.246094 83.050781 303.367188 140.117188 287.230469 Z M 130.84375 246.90625 C 130.84375 246.90625 115.332031 258.691406 139.523438 261.1875 C 171.15625 264.289062 195.964844 264.902344 238.773438 256.230469 C 242.996094 260.511719 247.957031 263.613281 253.65625 265.53125 C 166.199219 291.582031 68.207031 268.015625 130.84375 246.917969 Z M 302.023438 317.613281 C 302.023438 317.613281 312.566406 326.296875 290.242188 333.125 C 248.6875 345.546875 115.960938 349.261719 78.746094 333.125 C 65.722656 327.550781 90.527344 319.480469 98.480469 318.238281 C 106.546875 316.382812 110.898438 316.382812 110.898438 316.382812 C 96.621094 306.457031 16.003906 336.851562 69.96875 345.523438 C 218.203125 369.71875 340.390625 334.980469 301.933594 317.613281 Z M 146.839844 204.71875 C 146.839844 204.71875 79.234375 220.855469 122.648438 226.429688 C 141.253906 228.914062 177.84375 228.285156 211.957031 225.8125 C 239.863281 223.328125 267.792969 218.382812 267.792969 218.382812 C 267.792969 218.382812 257.867188 222.722656 251.042969 227.066406 C 182.207031 245.0625 50.085938 236.992188 87.925781 218.382812 C 120.175781 202.871094 146.847656 204.742188 146.847656 204.742188 Z M 267.792969 272.332031 C 337.253906 236.34375 305.007812 201.628906 282.675781 205.960938 C 277.101562 207.203125 274.605469 208.445312 274.605469 208.445312 C 274.605469 208.445312 276.464844 204.730469 280.804688 203.488281 C 324.847656 187.976562 359.578125 250.007812 266.527344 274.191406 C 266.527344 274.191406 267.144531 273.574219 267.769531 272.332031 Z M 153.6875 370.34375 C 220.664062 374.6875 323.011719 367.859375 325.484375 336.210938 C 325.484375 336.210938 320.527344 348.632812 270.289062 357.921875 C 213.222656 368.464844 142.519531 367.210938 100.964844 360.40625 C 100.964844 360.40625 109.644531 367.835938 153.6875 370.332031 Z M 153.6875 370.34375 " fill-opacity="1" fill-rule="nonzero"/><path fill="#f58219" d="M 225.726562 0.0117188 C 225.726562 0.0117188 264.183594 39.089844 189.136719 98.023438 C 128.972656 145.785156 175.5 173.082031 189.136719 204.101562 C 153.78125 172.464844 128.359375 144.542969 145.722656 118.503906 C 171.144531 80.027344 241.234375 61.53125 225.726562 0.0117188 Z M 205.992188 178.050781 C 223.984375 198.519531 201.035156 217.128906 201.035156 217.128906 C 201.035156 217.128906 246.933594 193.558594 225.84375 164.394531 C 206.617188 136.484375 191.714844 122.832031 272.355469 76.3125 C 272.355469 76.3125 145.210938 107.949219 205.992188 178.050781 Z M 205.992188 178.050781 " fill-opacity="1" fill-rule="nonzero"/><g fill="#000000" fill-opacity="1"><g transform="translate(192.746697, 186.384768)"><g><path d="M 0.125 0 C 0.113281 0 0.101562 -0.00390625 0.09375 -0.015625 C 0.0820312 -0.0234375 0.078125 -0.0351562 0.078125 -0.046875 C 0.078125 -0.0664062 0.0820312 -0.0820312 0.09375 -0.09375 C 0.101562 -0.101562 0.113281 -0.109375 0.125 -0.109375 C 0.144531 -0.109375 0.160156 -0.101562 0.171875 -0.09375 C 0.179688 -0.0820312 0.1875 -0.0664062 0.1875 -0.046875 C 0.1875 -0.0351562 0.179688 -0.0234375 0.171875 -0.015625 C 0.160156 -0.00390625 0.144531 0 0.125 0 Z M 0.125 0 "/></g></g></g></svg>