<svg xmlns="http://www.w3.org/2000/svg" xmlns:xlink="http://www.w3.org/1999/xlink" width="500" zoomAndPan="magnify" viewBox="0 0 375 374.999991" height="500" preserveAspectRatio="xMidYMid meet" version="1.0"><defs><g/><clipPath id="c2c6fda4e6"><path d="M 1 0.867188 L 375 0.867188 L 375 375 L 1 375 Z M 1 0.867188 " clip-rule="nonzero"/></clipPath><clipPath id="63b838ab39"><path d="M 1 0.867188 L 189 0.867188 L 189 375 L 1 375 Z M 1 0.867188 " clip-rule="nonzero"/></clipPath></defs><g clip-path="url(#c2c6fda4e6)"><path fill="#ffc44d" d="M 14.792969 0 C 11.050781 0 7.484375 1.605469 5.007812 4.414062 C 2.527344 7.222656 1.375 10.957031 1.839844 14.671875 L 36.652344 293.183594 C 37.195312 297.515625 39.867188 301.289062 43.769531 303.242188 L 183.027344 372.871094 C 186.699219 374.707031 191.027344 374.707031 194.703125 372.871094 L 333.957031 303.242188 C 337.863281 301.289062 340.53125 297.515625 341.074219 293.183594 L 375.886719 14.671875 C 376.351562 10.957031 375.199219 7.222656 372.722656 4.414062 C 370.242188 1.605469 366.679688 0 362.933594 0 Z M 14.792969 0 " fill-opacity="1" fill-rule="nonzero"/></g><g clip-path="url(#63b838ab39)"><path fill="#e5b045" d="M 188.863281 0 L 188.863281 374.25 C 186.863281 374.25 184.863281 373.789062 183.027344 372.871094 L 43.769531 303.242188 C 39.867188 301.289062 37.195312 297.515625 36.652344 293.183594 L 1.839844 14.671875 C 1.375 10.957031 2.527344 7.222656 5.007812 4.414062 C 7.484375 1.605469 11.050781 0 14.792969 0 Z M 188.863281 0 " fill-opacity="1" fill-rule="evenodd"/></g><path fill="#eceff1" d="M 74.78125 56.472656 C 77.253906 53.761719 80.753906 52.21875 84.421875 52.21875 L 293.304688 52.21875 C 300.515625 52.21875 306.359375 58.0625 306.359375 65.273438 C 306.359375 72.484375 300.515625 78.328125 293.304688 78.328125 L 98.71875 78.328125 L 105.046875 147.957031 L 293.304688 147.957031 C 297.175781 147.957031 300.847656 149.675781 303.328125 152.648438 C 305.808594 155.621094 306.84375 159.539062 306.152344 163.347656 L 288.742188 259.085938 C 288.070312 262.785156 285.839844 266.011719 282.617188 267.945312 L 195.582031 320.167969 C 191.445312 322.648438 186.28125 322.648438 182.148438 320.167969 L 95.113281 267.945312 C 91.539062 265.804688 89.203125 262.082031 88.828125 257.933594 L 71.421875 66.457031 C 71.089844 62.804688 72.308594 59.179688 74.78125 56.472656 Z M 107.421875 174.066406 L 114.230469 248.96875 L 188.863281 293.746094 L 264.113281 248.597656 L 277.664062 174.066406 Z M 107.421875 174.066406 " fill-opacity="1" fill-rule="evenodd"/><path fill="#cfd8dc" d="M 188.863281 78.328125 L 98.71875 78.328125 L 105.046875 147.957031 L 188.863281 147.957031 L 188.863281 174.066406 L 107.421875 174.066406 L 114.230469 248.96875 L 188.863281 293.746094 L 188.863281 322.027344 C 186.539062 322.027344 184.214844 321.40625 182.148438 320.167969 L 95.113281 267.945312 C 91.539062 265.804688 89.203125 262.082031 88.828125 257.933594 L 71.421875 66.457031 C 71.089844 62.804688 72.308594 59.179688 74.78125 56.472656 C 77.253906 53.761719 80.753906 52.21875 84.421875 52.21875 L 188.863281 52.21875 Z M 188.863281 78.328125 " fill-opacity="1" fill-rule="evenodd"/><g fill="#000000" fill-opacity="1"><g transform="translate(192.746697, 186.384768)"><g><path d="M 0.125 0 C 0.113281 0 0.101562 -0.00390625 0.09375 -0.015625 C 0.0820312 -0.0234375 0.078125 -0.0351562 0.078125 -0.046875 C 0.078125 -0.0664062 0.0820312 -0.0820312 0.09375 -0.09375 C 0.101562 -0.101562 0.113281 -0.109375 0.125 -0.109375 C 0.144531 -0.109375 0.160156 -0.101562 0.171875 -0.09375 C 0.179688 -0.0820312 0.1875 -0.0664062 0.1875 -0.046875 C 0.1875 -0.0351562 0.179688 -0.0234375 0.171875 -0.015625 C 0.160156 -0.00390625 0.144531 0 0.125 0 Z M 0.125 0 "/></g></g></g></svg>