<svg xmlns="http://www.w3.org/2000/svg" xmlns:xlink="http://www.w3.org/1999/xlink" width="500" zoomAndPan="magnify" viewBox="0 0 375 374.999991" height="500" preserveAspectRatio="xMidYMid meet" version="1.0"><defs><g/><clipPath id="01029388d5"><path d="M 5.246094 5.886719 L 365 5.886719 L 365 367.386719 L 5.246094 367.386719 Z M 5.246094 5.886719 " clip-rule="nonzero"/></clipPath><clipPath id="c5e54a0951"><path d="M 19 7 L 374.996094 7 L 374.996094 366 L 19 366 Z M 19 7 " clip-rule="nonzero"/></clipPath><clipPath id="6901b5e8c8"><path d="M 20 8 L 374.996094 8 L 374.996094 365 L 20 365 Z M 20 8 " clip-rule="nonzero"/></clipPath></defs><path fill="#000000" d="M 351.210938 8.707031 C 357.480469 8.707031 361.023438 10.207031 361.566406 13.203125 C 361.566406 14.429688 360.613281 15.519531 358.84375 16.476562 C 356.933594 17.429688 354.34375 17.835938 351.210938 17.835938 L 324.769531 17.835938 C 317.820312 17.835938 312.371094 21.109375 308.144531 27.785156 L 139.96875 341.921875 C 138.058594 345.605469 138.058594 348.332031 139.828125 349.964844 C 141.601562 351.601562 144.601562 352.554688 148.6875 352.554688 L 169.542969 352.554688 C 186.304688 352.554688 202.113281 349.558594 216.96875 343.5625 C 231.960938 337.5625 245.042969 328.433594 256.21875 315.894531 L 289.742188 274.191406 C 290.835938 273.097656 292.0625 272.558594 293.425781 272.417969 C 295.335938 272.558594 296.695312 273.238281 297.648438 274.734375 C 298.601562 276.097656 298.601562 277.597656 297.785156 279.371094 L 254.992188 356.507812 C 251.585938 361.824219 247.089844 364.410156 241.5 364.410156 L 18.535156 364.410156 C 12.402344 364.410156 8.996094 362.914062 8.316406 359.78125 C 8.316406 358.550781 9.269531 357.460938 11.175781 356.507812 C 12.949219 355.691406 15.539062 355.28125 18.535156 355.28125 L 53.425781 355.28125 C 60.375 355.28125 65.828125 352.011719 69.917969 345.332031 L 76.320312 333.476562 C 76.730469 332.523438 76.730469 331.566406 76.320312 330.75 C 75.914062 329.933594 75.09375 329.386719 74.003906 329.386719 L 56.96875 329.386719 C 56.289062 329.386719 55.878906 329.25 55.46875 328.839844 C 55.0625 328.433594 54.789062 327.886719 54.789062 327.34375 C 54.789062 326.660156 55.0625 326.117188 55.46875 325.707031 C 55.878906 325.296875 56.425781 325.160156 57.105469 325.160156 L 77.414062 325.160156 C 79.457031 325.160156 81.089844 324.070312 82.320312 322.164062 L 94.992188 298.585938 C 95.535156 297.632812 95.402344 296.816406 94.992188 295.859375 C 94.449219 295.042969 93.765625 294.632812 92.8125 294.632812 L 23.167969 294.632812 C 22.351562 294.632812 21.808594 294.363281 21.398438 293.953125 C 21.125 293.542969 20.855469 293.136719 20.855469 292.589844 C 20.855469 291.773438 21.125 291.226562 21.398438 290.816406 C 21.808594 290.546875 22.351562 290.273438 23.167969 290.273438 L 96.082031 290.273438 C 98.261719 290.136719 99.898438 289.183594 101.125 287.273438 L 121.023438 249.929688 C 121.429688 248.976562 121.429688 248.160156 120.886719 247.34375 C 120.476562 246.523438 119.660156 246.117188 118.707031 246.117188 L 99.21875 246.117188 C 98.671875 246.117188 98.128906 245.84375 97.71875 245.433594 C 97.308594 245.027344 97.175781 244.480469 97.175781 243.796875 C 97.175781 243.253906 97.308594 242.710938 97.71875 242.300781 C 98.128906 241.894531 98.671875 241.753906 99.21875 241.753906 L 122.113281 241.753906 C 124.296875 241.617188 125.929688 240.664062 127.019531 238.757812 L 141.601562 211.636719 C 142.011719 210.683594 141.875 209.867188 141.46875 209.046875 C 141.058594 208.230469 140.238281 207.820312 139.285156 207.820312 L 85.859375 207.820312 C 85.316406 207.820312 84.769531 207.546875 84.226562 207.140625 C 83.816406 206.730469 83.546875 206.320312 83.546875 205.777344 C 83.546875 204.957031 83.816406 204.414062 84.226562 204.003906 C 84.769531 203.59375 85.316406 203.457031 85.859375 203.457031 L 142.554688 203.457031 C 144.601562 203.457031 146.238281 202.503906 147.601562 200.460938 L 174.722656 149.761719 C 175.265625 148.808594 175.128906 147.992188 174.722656 147.175781 C 174.175781 146.355469 173.359375 145.945312 172.539062 145.945312 L 118.023438 145.945312 C 117.480469 145.8125 116.933594 145.539062 116.527344 145.128906 C 116.117188 144.71875 115.84375 144.308594 115.84375 143.628906 C 115.980469 143.085938 116.253906 142.539062 116.660156 142.128906 C 117.070312 141.582031 117.480469 141.449219 118.023438 141.449219 L 175.808594 141.449219 C 177.855469 141.449219 179.492188 140.496094 180.855469 138.449219 L 194.207031 113.511719 C 194.617188 112.554688 194.617188 111.738281 194.074219 110.917969 C 193.527344 110.101562 192.84375 109.695312 191.894531 109.695312 L 183.441406 109.695312 C 182.898438 109.558594 182.351562 109.285156 181.941406 108.875 C 181.535156 108.46875 181.261719 108.058594 181.125 107.511719 C 181.261719 106.832031 181.535156 106.289062 181.941406 105.878906 C 182.351562 105.46875 182.898438 105.195312 183.441406 105.195312 L 195.164062 105.195312 C 197.34375 105.195312 199.113281 104.246094 200.207031 102.199219 L 216.96875 70.714844 C 217.511719 69.761719 217.511719 68.945312 216.96875 68.128906 C 216.558594 67.308594 215.878906 66.902344 214.785156 66.902344 L 196.527344 66.902344 C 195.980469 66.765625 195.570312 66.492188 195.164062 66.085938 C 194.753906 65.675781 194.484375 65.265625 194.34375 64.582031 C 194.484375 64.039062 194.753906 63.492188 195.164062 63.085938 C 195.570312 62.675781 195.980469 62.402344 196.527344 62.402344 L 218.058594 62.402344 C 220.238281 62.402344 221.875 61.449219 223.101562 59.40625 L 231.414062 44.003906 C 231.824219 43.050781 231.824219 42.234375 231.28125 41.414062 C 230.871094 40.597656 230.050781 40.191406 229.097656 40.191406 L 177.71875 40.191406 C 177.035156 40.191406 176.492188 39.917969 176.085938 39.507812 C 175.675781 39.097656 175.402344 38.554688 175.402344 38.007812 C 175.402344 37.324219 175.675781 36.917969 176.085938 36.507812 C 176.492188 36.101562 177.035156 35.828125 177.71875 35.691406 L 232.503906 35.691406 C 234.6875 35.691406 236.320312 34.738281 237.414062 32.695312 L 240.820312 26.289062 C 241.773438 24.242188 241.773438 22.332031 240.679688 20.5625 C 239.59375 18.792969 237.957031 17.835938 235.777344 17.835938 L 202.519531 17.835938 C 196.117188 17.835938 192.710938 16.339844 192.300781 13.203125 C 192.300781 11.839844 193.121094 10.886719 195.027344 9.933594 C 196.933594 9.117188 199.386719 8.707031 202.519531 8.707031 Z M 351.210938 8.707031 " fill-opacity="1" fill-rule="nonzero"/><g clip-path="url(#01029388d5)"><path stroke-linecap="butt" transform="matrix(1.362857, 0, 0, 1.362857, -22234.463015, -29077.657451)" fill="none" stroke-linejoin="round" d="M 16572.300664 21342.2003 C 16576.90095 21342.2003 16579.500613 21343.30093 16579.899018 21345.499322 C 16579.899018 21346.399315 16579.19966 21347.198991 16577.901262 21347.901215 C 16576.499679 21348.600574 16574.599374 21348.898661 16572.300664 21348.898661 L 16552.899209 21348.898661 C 16547.800201 21348.898661 16543.801822 21351.300554 16540.70057 21356.198927 L 16417.301126 21586.697613 C 16415.899543 21589.40046 16415.899543 21591.401082 16417.197942 21592.599163 C 16418.499206 21593.80011 16420.700465 21594.499468 16423.698532 21594.499468 L 16439.00129 21594.499468 C 16451.300248 21594.499468 16462.899847 21592.301076 16473.800088 21587.901426 C 16484.800647 21583.498909 16494.399624 21576.800549 16502.599884 21567.599977 L 16527.197799 21537.000194 C 16528.000341 21536.197652 16528.900335 21535.802113 16529.900646 21535.698929 C 16531.302229 21535.802113 16532.299674 21536.300836 16532.999032 21537.398599 C 16533.69839 21538.39891 16533.69839 21539.499539 16533.09935 21540.800804 L 16501.699891 21597.400085 C 16499.200545 21601.301012 16495.901524 21603.198451 16491.799961 21603.198451 L 16328.198891 21603.198451 C 16323.698923 21603.198451 16321.199577 21602.100688 16320.700855 21599.801978 C 16320.700855 21598.899119 16321.400213 21598.099443 16322.798929 21597.400085 C 16324.100194 21596.801044 16326.000499 21596.500091 16328.198891 21596.500091 L 16353.799983 21596.500091 C 16358.898992 21596.500091 16362.900237 21594.101063 16365.901171 21589.199824 L 16370.598909 21580.500841 C 16370.899862 21579.801483 16370.899862 21579.099259 16370.598909 21578.500218 C 16370.300822 21577.901178 16369.698915 21577.499907 16368.899239 21577.499907 L 16356.399646 21577.499907 C 16355.900924 21577.499907 16355.59997 21577.399589 16355.299017 21577.098636 C 16355.00093 21576.800549 16354.800294 21576.399278 16354.800294 21576.000873 C 16354.800294 21575.499284 16355.00093 21575.100879 16355.299017 21574.799926 C 16355.59997 21574.498973 16356.001241 21574.398655 16356.499964 21574.398655 L 16371.401451 21574.398655 C 16372.900485 21574.398655 16374.098565 21573.598979 16375.001425 21572.200263 L 16384.299449 21554.899749 C 16384.697853 21554.200391 16384.600402 21553.60135 16384.299449 21552.899126 C 16383.901044 21552.300086 16383.399455 21551.999132 16382.700097 21551.999132 L 16331.59823 21551.999132 C 16330.999189 21551.999132 16330.600784 21551.801363 16330.299831 21551.50041 C 16330.099196 21551.199456 16329.901426 21550.901369 16329.901426 21550.500098 C 16329.901426 21549.901058 16330.099196 21549.499787 16330.299831 21549.198834 C 16330.600784 21549.001064 16330.999189 21548.800429 16331.59823 21548.800429 L 16385.099124 21548.800429 C 16386.698476 21548.700111 16387.899423 21548.000753 16388.799417 21546.599171 L 16403.39995 21519.198091 C 16403.698037 21518.498733 16403.698037 21517.899692 16403.299632 21517.300652 C 16402.998679 21516.698746 16402.399639 21516.400658 16401.700281 21516.400658 L 16387.4007 21516.400658 C 16386.999429 21516.400658 16386.601025 21516.200023 16386.300071 21515.89907 C 16385.999118 21515.600983 16385.901666 21515.199712 16385.901666 21514.698123 C 16385.901666 21514.299718 16385.999118 21513.901313 16386.300071 21513.60036 C 16386.601025 21513.302273 16386.999429 21513.199089 16387.4007 21513.199089 L 16404.199626 21513.199089 C 16405.801844 21513.098771 16406.999925 21512.399413 16407.799601 21511.000697 L 16418.499206 21491.100519 C 16418.80016 21490.401161 16418.699842 21489.802121 16418.401755 21489.200214 C 16418.100801 21488.601174 16417.498895 21488.300221 16416.799537 21488.300221 L 16377.598222 21488.300221 C 16377.199817 21488.300221 16376.798546 21488.099585 16376.400141 21487.801498 C 16376.099188 21487.500545 16375.901419 21487.199591 16375.901419 21486.801187 C 16375.901419 21486.19928 16376.099188 21485.800875 16376.400141 21485.499922 C 16376.798546 21485.198969 16377.199817 21485.098651 16377.598222 21485.098651 L 16419.198564 21485.098651 C 16420.700465 21485.098651 16421.901411 21484.399293 16422.901723 21482.900259 L 16442.8019 21445.699567 C 16443.200305 21445.000209 16443.099987 21444.401169 16442.8019 21443.802128 C 16442.400629 21443.200222 16441.801589 21442.899268 16441.199682 21442.899268 L 16401.198692 21442.899268 C 16400.800287 21442.801817 16400.399016 21442.601181 16400.100929 21442.300228 C 16399.799976 21441.999275 16399.59934 21441.698322 16399.59934 21441.199599 C 16399.699658 21440.801194 16399.900293 21440.399923 16400.19838 21440.09897 C 16400.499334 21439.697699 16400.800287 21439.600247 16401.198692 21439.600247 L 16443.59871 21439.600247 C 16445.10061 21439.600247 16446.301557 21438.900889 16447.301868 21437.398989 L 16457.098614 21419.101029 C 16457.399568 21418.398805 16457.399568 21417.799765 16457.001163 21417.197858 C 16456.599892 21416.598818 16456.098303 21416.300731 16455.401811 21416.300731 L 16449.199307 21416.300731 C 16448.800902 21416.200413 16448.399631 21415.999777 16448.098678 21415.698824 C 16447.800591 21415.400737 16447.599955 21415.099784 16447.499638 21414.698513 C 16447.599955 21414.19979 16447.800591 21413.801385 16448.098678 21413.500432 C 16448.399631 21413.199479 16448.800902 21412.998843 16449.199307 21412.998843 L 16457.800839 21412.998843 C 16459.40019 21412.998843 16460.698589 21412.302351 16461.501131 21410.800451 L 16473.800088 21387.698704 C 16474.198493 21386.999346 16474.198493 21386.400306 16473.800088 21385.801265 C 16473.499135 21385.199359 16473.000412 21384.901272 16472.19787 21384.901272 L 16458.80115 21384.901272 C 16458.399879 21384.800954 16458.098926 21384.600318 16457.800839 21384.302231 C 16457.499885 21384.001278 16457.302116 21383.700325 16457.198932 21383.198736 C 16457.302116 21382.800331 16457.499885 21382.39906 16457.800839 21382.100973 C 16458.098926 21381.80002 16458.399879 21381.599384 16458.80115 21381.599384 L 16474.599764 21381.599384 C 16476.199116 21381.599384 16477.400063 21380.900026 16478.300056 21379.400992 L 16484.399376 21368.09948 C 16484.70033 21367.400122 16484.70033 21366.801081 16484.301925 21366.199175 C 16484.000971 21365.600135 16483.399065 21365.302048 16482.699707 21365.302048 L 16445.000292 21365.302048 C 16444.498704 21365.302048 16444.100299 21365.101412 16443.802212 21364.800459 C 16443.501258 21364.499505 16443.300623 21364.101101 16443.300623 21363.69983 C 16443.300623 21363.198241 16443.501258 21362.900154 16443.802212 21362.5992 C 16444.100299 21362.301113 16444.498704 21362.100478 16445.000292 21362.00016 L 16485.199052 21362.00016 C 16486.80127 21362.00016 16487.999351 21361.300802 16488.801893 21359.801768 L 16491.301238 21355.101164 C 16492.000596 21353.599264 16492.000596 21352.197682 16491.198054 21350.899283 C 16490.401245 21349.600885 16489.200298 21348.898661 16487.600946 21348.898661 L 16463.197934 21348.898661 C 16458.500197 21348.898661 16456.000851 21347.800898 16455.699898 21345.499322 C 16455.699898 21344.49901 16456.301805 21343.799652 16457.700521 21343.100294 C 16459.099237 21342.501254 16460.899224 21342.2003 16463.197934 21342.2003 Z M 16572.300664 21342.2003 " stroke="#53277f" stroke-width="4.17" stroke-opacity="1" stroke-miterlimit="2"/></g><path fill="#ffba1a" d="M 363.476562 8.707031 C 369.746094 8.707031 373.289062 10.207031 373.835938 13.203125 C 373.835938 14.429688 372.878906 15.519531 371.109375 16.476562 C 369.199219 17.429688 366.609375 17.835938 363.476562 17.835938 L 337.039062 17.835938 C 330.085938 17.835938 324.636719 21.109375 320.410156 27.785156 L 152.234375 341.921875 C 150.324219 345.605469 150.324219 348.332031 152.097656 349.964844 C 153.867188 351.601562 156.867188 352.554688 160.953125 352.554688 L 181.808594 352.554688 C 198.570312 352.554688 214.378906 349.558594 229.234375 343.5625 C 244.226562 337.5625 257.308594 328.433594 268.484375 315.894531 L 302.011719 274.191406 C 303.101562 273.097656 304.328125 272.558594 305.691406 272.417969 C 307.601562 272.558594 308.964844 273.238281 309.917969 274.734375 C 310.867188 276.097656 310.867188 277.597656 310.050781 279.371094 L 267.257812 356.507812 C 263.851562 361.824219 259.355469 364.410156 253.765625 364.410156 L 30.804688 364.410156 C 24.671875 364.410156 21.261719 362.914062 20.582031 359.78125 C 20.582031 358.550781 21.535156 357.460938 23.445312 356.507812 C 25.214844 355.691406 27.804688 355.28125 30.804688 355.28125 L 65.691406 355.28125 C 72.644531 355.28125 78.09375 352.011719 82.183594 345.332031 L 88.585938 333.476562 C 88.996094 332.523438 88.996094 331.566406 88.585938 330.75 C 88.179688 329.933594 87.363281 329.386719 86.273438 329.386719 L 69.234375 329.386719 C 68.554688 329.386719 68.144531 329.25 67.734375 328.839844 C 67.328125 328.433594 67.054688 327.886719 67.054688 327.34375 C 67.054688 326.660156 67.328125 326.117188 67.734375 325.707031 C 68.144531 325.296875 68.691406 325.160156 69.371094 325.160156 L 89.679688 325.160156 C 91.722656 325.160156 93.359375 324.070312 94.585938 322.164062 L 107.261719 298.585938 C 107.804688 297.632812 107.667969 296.816406 107.261719 295.859375 C 106.714844 295.042969 106.035156 294.632812 105.078125 294.632812 L 35.4375 294.632812 C 34.617188 294.632812 34.074219 294.363281 33.664062 293.953125 C 33.390625 293.542969 33.121094 293.136719 33.121094 292.589844 C 33.121094 291.773438 33.390625 291.226562 33.664062 290.816406 C 34.074219 290.546875 34.617188 290.273438 35.4375 290.273438 L 108.347656 290.273438 C 110.527344 290.136719 112.167969 289.183594 113.394531 287.273438 L 133.289062 249.929688 C 133.699219 248.976562 133.699219 248.160156 133.15625 247.34375 C 132.746094 246.523438 131.925781 246.117188 130.972656 246.117188 L 111.484375 246.117188 C 110.9375 246.117188 110.394531 245.84375 109.984375 245.433594 C 109.578125 245.027344 109.441406 244.480469 109.441406 243.796875 C 109.441406 243.253906 109.578125 242.710938 109.984375 242.300781 C 110.394531 241.894531 110.9375 241.753906 111.484375 241.753906 L 134.378906 241.753906 C 136.5625 241.617188 138.195312 240.664062 139.289062 238.757812 L 153.867188 211.636719 C 154.277344 210.683594 154.140625 209.867188 153.734375 209.046875 C 153.324219 208.230469 152.507812 207.820312 151.554688 207.820312 L 98.128906 207.820312 C 97.582031 207.820312 97.039062 207.546875 96.492188 207.140625 C 96.082031 206.730469 95.8125 206.320312 95.8125 205.777344 C 95.8125 204.957031 96.082031 204.414062 96.492188 204.003906 C 97.039062 203.59375 97.582031 203.457031 98.128906 203.457031 L 154.820312 203.457031 C 156.867188 203.457031 158.503906 202.503906 159.867188 200.460938 L 186.988281 149.761719 C 187.53125 148.808594 187.394531 147.992188 186.988281 147.175781 C 186.441406 146.355469 185.625 145.945312 184.804688 145.945312 L 130.289062 145.945312 C 129.746094 145.8125 129.203125 145.539062 128.792969 145.128906 C 128.382812 144.71875 128.109375 144.308594 128.109375 143.628906 C 128.246094 143.085938 128.519531 142.539062 128.925781 142.128906 C 129.335938 141.582031 129.746094 141.449219 130.289062 141.449219 L 188.078125 141.449219 C 190.121094 141.449219 191.757812 140.496094 193.121094 138.449219 L 206.476562 113.511719 C 206.882812 112.554688 206.882812 111.738281 206.339844 110.917969 C 205.792969 110.101562 205.113281 109.695312 204.160156 109.695312 L 195.707031 109.695312 C 195.164062 109.558594 194.617188 109.285156 194.210938 108.875 C 193.800781 108.46875 193.527344 108.058594 193.390625 107.511719 C 193.527344 106.832031 193.800781 106.289062 194.210938 105.878906 C 194.617188 105.46875 195.164062 105.195312 195.707031 105.195312 L 207.429688 105.195312 C 209.609375 105.195312 211.378906 104.246094 212.472656 102.199219 L 229.234375 70.714844 C 229.777344 69.761719 229.777344 68.945312 229.234375 68.128906 C 228.824219 67.308594 228.144531 66.902344 227.054688 66.902344 L 208.792969 66.902344 C 208.246094 66.765625 207.835938 66.492188 207.429688 66.085938 C 207.019531 65.675781 206.75 65.265625 206.609375 64.582031 C 206.75 64.039062 207.019531 63.492188 207.429688 63.085938 C 207.835938 62.675781 208.246094 62.402344 208.792969 62.402344 L 230.324219 62.402344 C 232.503906 62.402344 234.140625 61.449219 235.367188 59.40625 L 243.683594 44.003906 C 244.089844 43.050781 244.089844 42.234375 243.546875 41.414062 C 243.136719 40.597656 242.320312 40.191406 241.363281 40.191406 L 189.984375 40.191406 C 189.304688 40.191406 188.757812 39.917969 188.351562 39.507812 C 187.941406 39.097656 187.667969 38.554688 187.667969 38.007812 C 187.667969 37.324219 187.941406 36.917969 188.351562 36.507812 C 188.757812 36.101562 189.304688 35.828125 189.984375 35.691406 L 244.769531 35.691406 C 246.953125 35.691406 248.585938 34.738281 249.679688 32.695312 L 253.085938 26.289062 C 254.039062 24.242188 254.039062 22.332031 252.949219 20.5625 C 251.859375 18.792969 250.222656 17.835938 248.042969 17.835938 L 214.789062 17.835938 C 208.382812 17.835938 204.976562 16.339844 204.566406 13.203125 C 204.566406 11.839844 205.386719 10.886719 207.292969 9.933594 C 209.199219 9.117188 211.65625 8.707031 214.789062 8.707031 Z M 363.476562 8.707031 " fill-opacity="1" fill-rule="nonzero"/><g clip-path="url(#c5e54a0951)"><path stroke-linecap="butt" transform="matrix(1.362857, 0, 0, 1.362857, -22222.196616, -29077.657451)" fill="none" stroke-linejoin="round" d="M 16572.300096 21342.2003 C 16576.900382 21342.2003 16579.500045 21343.30093 16579.901316 21345.499322 C 16579.901316 21346.399315 16579.199092 21347.198991 16577.900693 21347.901215 C 16576.499111 21348.600574 16574.598806 21348.898661 16572.300096 21348.898661 L 16552.901508 21348.898661 C 16547.799633 21348.898661 16543.801254 21351.300554 16540.700002 21356.198927 L 16417.300557 21586.697613 C 16415.898975 21589.40046 16415.898975 21591.401082 16417.20024 21592.599163 C 16418.498638 21593.80011 16420.699896 21594.499468 16423.697964 21594.499468 L 16439.000722 21594.499468 C 16451.29968 21594.499468 16462.899279 21592.301076 16473.79952 21587.901426 C 16484.800079 21583.498909 16494.399056 21576.800549 16502.599316 21567.599977 L 16527.200097 21537.000194 C 16527.999773 21536.197652 16528.899767 21535.802113 16529.900078 21535.698929 C 16531.301661 21535.802113 16532.301972 21536.300836 16533.00133 21537.398599 C 16533.697822 21538.39891 16533.697822 21539.499539 16533.098782 21540.800804 L 16501.699323 21597.400085 C 16499.199977 21601.301012 16495.900956 21603.198451 16491.799393 21603.198451 L 16328.201189 21603.198451 C 16323.701221 21603.198451 16321.199009 21602.100688 16320.700287 21599.801978 C 16320.700287 21598.899119 16321.399645 21598.099443 16322.801227 21597.400085 C 16324.099625 21596.801044 16325.99993 21596.500091 16328.201189 21596.500091 L 16353.799415 21596.500091 C 16358.90129 21596.500091 16362.899669 21594.101063 16365.900603 21589.199824 L 16370.598341 21580.500841 C 16370.899294 21579.801483 16370.899294 21579.099259 16370.598341 21578.500218 C 16370.300254 21577.901178 16369.701213 21577.499907 16368.901537 21577.499907 L 16356.399078 21577.499907 C 16355.900356 21577.499907 16355.599402 21577.399589 16355.298449 21577.098636 C 16355.000362 21576.800549 16354.799726 21576.399278 16354.799726 21576.000873 C 16354.799726 21575.499284 16355.000362 21575.100879 16355.298449 21574.799926 C 16355.599402 21574.498973 16356.000673 21574.398655 16356.499396 21574.398655 L 16371.400883 21574.398655 C 16372.899917 21574.398655 16374.100864 21573.598979 16375.000857 21572.200263 L 16384.301747 21554.899749 C 16384.700152 21554.200391 16384.599834 21553.60135 16384.301747 21552.899126 C 16383.900476 21552.300086 16383.401753 21551.999132 16382.699529 21551.999132 L 16331.600528 21551.999132 C 16330.998621 21551.999132 16330.600216 21551.801363 16330.299263 21551.50041 C 16330.098628 21551.199456 16329.900858 21550.901369 16329.900858 21550.500098 C 16329.900858 21549.901058 16330.098628 21549.499787 16330.299263 21549.198834 C 16330.600216 21549.001064 16330.998621 21548.800429 16331.600528 21548.800429 L 16385.098556 21548.800429 C 16386.697908 21548.700111 16387.901721 21548.000753 16388.801715 21546.599171 L 16403.399382 21519.198091 C 16403.700335 21518.498733 16403.700335 21517.899692 16403.301931 21517.300652 C 16403.000977 21516.698746 16402.399071 21516.400658 16401.699713 21516.400658 L 16387.400132 21516.400658 C 16386.998861 21516.400658 16386.600457 21516.200023 16386.299503 21515.89907 C 16386.001416 21515.600983 16385.901098 21515.199712 16385.901098 21514.698123 C 16385.901098 21514.299718 16386.001416 21513.901313 16386.299503 21513.60036 C 16386.600457 21513.302273 16386.998861 21513.199089 16387.400132 21513.199089 L 16404.199058 21513.199089 C 16405.801276 21513.098771 16406.999357 21512.399413 16407.801899 21511.000697 L 16418.498638 21491.100519 C 16418.799591 21490.401161 16418.699274 21489.802121 16418.401187 21489.200214 C 16418.100233 21488.601174 16417.501193 21488.300221 16416.801835 21488.300221 L 16377.60052 21488.300221 C 16377.199249 21488.300221 16376.800844 21488.099585 16376.399573 21487.801498 C 16376.09862 21487.500545 16375.900851 21487.199591 16375.900851 21486.801187 C 16375.900851 21486.19928 16376.09862 21485.800875 16376.399573 21485.499922 C 16376.800844 21485.198969 16377.199249 21485.098651 16377.60052 21485.098651 L 16419.197996 21485.098651 C 16420.699896 21485.098651 16421.900843 21484.399293 16422.901155 21482.900259 L 16442.801332 21445.699567 C 16443.199737 21445.000209 16443.099419 21444.401169 16442.801332 21443.802128 C 16442.400061 21443.200222 16441.801021 21442.899268 16441.199114 21442.899268 L 16401.198124 21442.899268 C 16400.799719 21442.801817 16400.401314 21442.601181 16400.100361 21442.300228 C 16399.799408 21441.999275 16399.598772 21441.698322 16399.598772 21441.199599 C 16399.69909 21440.801194 16399.899725 21440.399923 16400.197812 21440.09897 C 16400.498766 21439.697699 16400.799719 21439.600247 16401.198124 21439.600247 L 16443.601008 21439.600247 C 16445.100042 21439.600247 16446.300989 21438.900889 16447.3013 21437.398989 L 16457.100912 21419.101029 C 16457.398999 21418.398805 16457.398999 21417.799765 16457.000595 21417.197858 C 16456.599324 21416.598818 16456.100601 21416.300731 16455.401243 21416.300731 L 16449.198739 21416.300731 C 16448.800334 21416.200413 16448.399063 21415.999777 16448.100976 21415.698824 C 16447.800023 21415.400737 16447.599387 21415.099784 16447.49907 21414.698513 C 16447.599387 21414.19979 16447.800023 21413.801385 16448.100976 21413.500432 C 16448.399063 21413.199479 16448.800334 21412.998843 16449.198739 21412.998843 L 16457.800271 21412.998843 C 16459.399622 21412.998843 16460.698021 21412.302351 16461.500563 21410.800451 L 16473.79952 21387.698704 C 16474.197925 21386.999346 16474.197925 21386.400306 16473.79952 21385.801265 C 16473.498567 21385.199359 16472.999844 21384.901272 16472.200168 21384.901272 L 16458.800582 21384.901272 C 16458.399311 21384.800954 16458.098358 21384.600318 16457.800271 21384.302231 C 16457.499317 21384.001278 16457.301548 21383.700325 16457.198364 21383.198736 C 16457.301548 21382.800331 16457.499317 21382.39906 16457.800271 21382.100973 C 16458.098358 21381.80002 16458.399311 21381.599384 16458.800582 21381.599384 L 16474.599196 21381.599384 C 16476.198548 21381.599384 16477.399495 21380.900026 16478.299488 21379.400992 L 16484.401674 21368.09948 C 16484.699761 21367.400122 16484.699761 21366.801081 16484.301357 21366.199175 C 16484.000403 21365.600135 16483.401363 21365.302048 16482.699139 21365.302048 L 16444.999724 21365.302048 C 16444.501002 21365.302048 16444.099731 21365.101412 16443.801644 21364.800459 C 16443.50069 21364.499505 16443.300055 21364.101101 16443.300055 21363.69983 C 16443.300055 21363.198241 16443.50069 21362.900154 16443.801644 21362.5992 C 16444.099731 21362.301113 16444.501002 21362.100478 16444.999724 21362.00016 L 16485.198484 21362.00016 C 16486.800702 21362.00016 16487.998783 21361.300802 16488.801325 21359.801768 L 16491.30067 21355.101164 C 16492.000028 21353.599264 16492.000028 21352.197682 16491.200352 21350.899283 C 16490.400676 21349.600885 16489.19973 21348.898661 16487.600378 21348.898661 L 16463.200232 21348.898661 C 16458.499629 21348.898661 16456.000283 21347.800898 16455.69933 21345.499322 C 16455.69933 21344.49901 16456.301237 21343.799652 16457.699953 21343.100294 C 16459.098669 21342.501254 16460.901522 21342.2003 16463.200232 21342.2003 Z M 16572.300096 21342.2003 " stroke="#ffffff" stroke-width="1.46" stroke-opacity="1" stroke-miterlimit="2"/></g><g clip-path="url(#6901b5e8c8)"><path stroke-linecap="butt" transform="matrix(1.362857, 0, 0, 1.362857, -22222.059816, -29077.657451)" fill="none" stroke-linejoin="round" d="M 16572.300037 21342.2003 C 16576.900322 21342.2003 16579.499986 21343.30093 16579.901257 21345.499322 C 16579.901257 21346.399315 16579.199032 21347.198991 16577.900634 21347.901215 C 16576.499051 21348.600574 16574.598746 21348.898661 16572.300037 21348.898661 L 16552.901448 21348.898661 C 16547.799573 21348.898661 16543.801194 21351.300554 16540.699942 21356.198927 L 16417.300498 21586.697613 C 16415.901782 21589.40046 16415.901782 21591.401082 16417.20018 21592.599163 C 16418.498579 21593.80011 16420.699837 21594.499468 16423.697905 21594.499468 L 16439.000663 21594.499468 C 16451.29962 21594.499468 16462.899219 21592.301076 16473.799461 21587.901426 C 16484.80002 21583.498909 16494.398996 21576.800549 16502.599257 21567.599977 L 16527.200038 21537.000194 C 16527.999714 21536.197652 16528.899707 21535.802113 16529.900019 21535.698929 C 16531.301601 21535.802113 16532.301912 21536.300836 16533.00127 21537.398599 C 16533.700629 21538.39891 16533.700629 21539.499539 16533.098722 21540.800804 L 16501.699263 21597.400085 C 16499.199918 21601.301012 16495.900896 21603.198451 16491.802199 21603.198451 L 16328.201129 21603.198451 C 16323.701161 21603.198451 16321.198949 21602.100688 16320.700227 21599.801978 C 16320.700227 21598.899119 16321.399585 21598.099443 16322.801167 21597.400085 C 16324.099566 21596.801044 16325.999871 21596.500091 16328.201129 21596.500091 L 16353.799355 21596.500091 C 16358.90123 21596.500091 16362.899609 21594.101063 16365.900544 21589.199824 L 16370.598281 21580.500841 C 16370.899234 21579.801483 16370.899234 21579.099259 16370.598281 21578.500218 C 16370.300194 21577.901178 16369.701154 21577.499907 16368.901478 21577.499907 L 16356.399019 21577.499907 C 16355.900296 21577.499907 16355.599343 21577.399589 16355.298389 21577.098636 C 16355.000302 21576.800549 16354.799667 21576.399278 16354.799667 21576.000873 C 16354.799667 21575.499284 16355.000302 21575.100879 16355.298389 21574.799926 C 16355.599343 21574.498973 16356.000614 21574.398655 16356.499336 21574.398655 L 16371.400823 21574.398655 C 16372.899857 21574.398655 16374.100804 21573.598979 16375.000798 21572.200263 L 16384.301687 21554.899749 C 16384.700092 21554.200391 16384.599774 21553.60135 16384.301687 21552.899126 C 16383.900416 21552.300086 16383.401693 21551.999132 16382.699469 21551.999132 L 16331.600468 21551.999132 C 16331.001428 21551.999132 16330.600157 21551.801363 16330.299203 21551.50041 C 16330.098568 21551.199456 16329.900799 21550.901369 16329.900799 21550.500098 C 16329.900799 21549.901058 16330.098568 21549.499787 16330.299203 21549.198834 C 16330.600157 21549.001064 16331.001428 21548.800429 16331.600468 21548.800429 L 16385.098497 21548.800429 C 16386.697848 21548.700111 16387.901662 21548.000753 16388.801655 21546.599171 L 16403.399322 21519.198091 C 16403.700276 21518.498733 16403.700276 21517.899692 16403.301871 21517.300652 C 16403.000918 21516.698746 16402.399011 21516.400658 16401.699653 21516.400658 L 16387.400073 21516.400658 C 16386.998802 21516.400658 16386.600397 21516.200023 16386.299444 21515.89907 C 16386.001357 21515.600983 16385.901039 21515.199712 16385.901039 21514.698123 C 16385.901039 21514.299718 16386.001357 21513.901313 16386.299444 21513.60036 C 16386.600397 21513.302273 16386.998802 21513.199089 16387.400073 21513.199089 L 16404.198998 21513.199089 C 16405.801216 21513.098771 16406.999297 21512.399413 16407.801839 21511.000697 L 16418.498579 21491.100519 C 16418.799532 21490.401161 16418.699214 21489.802121 16418.401127 21489.200214 C 16418.100174 21488.601174 16417.501133 21488.300221 16416.801775 21488.300221 L 16377.600461 21488.300221 C 16377.19919 21488.300221 16376.800785 21488.099585 16376.399514 21487.801498 C 16376.09856 21487.500545 16375.900791 21487.199591 16375.900791 21486.801187 C 16375.900791 21486.19928 16376.09856 21485.800875 16376.399514 21485.499922 C 16376.800785 21485.198969 16377.19919 21485.098651 16377.600461 21485.098651 L 16419.197937 21485.098651 C 16420.699837 21485.098651 16421.900784 21484.399293 16422.901095 21482.900259 L 16442.801273 21445.699567 C 16443.199677 21445.000209 16443.09936 21444.401169 16442.801273 21443.802128 C 16442.400002 21443.200222 16441.800961 21442.899268 16441.199055 21442.899268 L 16401.198064 21442.899268 C 16400.799659 21442.801817 16400.401255 21442.601181 16400.100301 21442.300228 C 16399.802214 21441.999275 16399.598712 21441.698322 16399.598712 21441.199599 C 16399.69903 21440.801194 16399.899666 21440.399923 16400.200619 21440.09897 C 16400.498706 21439.697699 16400.799659 21439.600247 16401.198064 21439.600247 L 16443.600948 21439.600247 C 16445.099982 21439.600247 16446.300929 21438.900889 16447.301241 21437.398989 L 16457.100853 21419.101029 C 16457.401806 21418.398805 16457.401806 21417.799765 16457.000535 21417.197858 C 16456.599264 21416.598818 16456.100541 21416.300731 16455.401183 21416.300731 L 16449.198679 21416.300731 C 16448.800275 21416.200413 16448.399004 21415.999777 16448.100917 21415.698824 C 16447.799963 21415.400737 16447.599328 21415.099784 16447.49901 21414.698513 C 16447.599328 21414.19979 16447.799963 21413.801385 16448.100917 21413.500432 C 16448.399004 21413.199479 16448.800275 21412.998843 16449.198679 21412.998843 L 16457.800211 21412.998843 C 16459.399563 21412.998843 16460.697961 21412.302351 16461.500503 21410.800451 L 16473.799461 21387.698704 C 16474.197865 21386.999346 16474.197865 21386.400306 16473.799461 21385.801265 C 16473.501374 21385.199359 16472.999785 21384.901272 16472.200109 21384.901272 L 16458.800522 21384.901272 C 16458.399251 21384.800954 16458.098298 21384.600318 16457.800211 21384.302231 C 16457.499258 21384.001278 16457.301488 21383.700325 16457.198304 21383.198736 C 16457.301488 21382.800331 16457.499258 21382.39906 16457.800211 21382.100973 C 16458.098298 21381.80002 16458.399251 21381.599384 16458.800522 21381.599384 L 16474.599136 21381.599384 C 16476.198488 21381.599384 16477.399435 21380.900026 16478.299429 21379.400992 L 16484.401615 21368.09948 C 16484.699702 21367.400122 16484.699702 21366.801081 16484.301297 21366.199175 C 16484.000344 21365.600135 16483.401303 21365.302048 16482.699079 21365.302048 L 16444.999665 21365.302048 C 16444.500942 21365.302048 16444.099671 21365.101412 16443.801584 21364.800459 C 16443.500631 21364.499505 16443.299995 21364.101101 16443.299995 21363.69983 C 16443.299995 21363.198241 16443.500631 21362.900154 16443.801584 21362.5992 C 16444.099671 21362.301113 16444.500942 21362.100478 16444.999665 21362.00016 L 16485.198424 21362.00016 C 16486.800642 21362.00016 16487.998723 21361.300802 16488.801265 21359.801768 L 16491.30061 21355.101164 C 16491.999969 21353.599264 16491.999969 21352.197682 16491.200293 21350.899283 C 16490.400617 21349.600885 16489.19967 21348.898661 16487.600318 21348.898661 L 16463.200173 21348.898661 C 16458.499569 21348.898661 16456.000224 21347.800898 16455.69927 21345.499322 C 16455.69927 21344.49901 16456.301177 21343.799652 16457.699893 21343.100294 C 16459.098609 21342.501254 16460.901463 21342.2003 16463.200173 21342.2003 Z M 16572.300037 21342.2003 " stroke="#53277f" stroke-width="0.63" stroke-opacity="1" stroke-miterlimit="2"/></g><g fill="#000000" fill-opacity="1"><g transform="translate(192.746697, 186.384768)"><g><path d="M 0.125 0 C 0.113281 0 0.101562 -0.00390625 0.09375 -0.015625 C 0.0820312 -0.0234375 0.078125 -0.0351562 0.078125 -0.046875 C 0.078125 -0.0664062 0.0820312 -0.0820312 0.09375 -0.09375 C 0.101562 -0.101562 0.113281 -0.109375 0.125 -0.109375 C 0.144531 -0.109375 0.160156 -0.101562 0.171875 -0.09375 C 0.179688 -0.0820312 0.1875 -0.0664062 0.1875 -0.046875 C 0.1875 -0.0351562 0.179688 -0.0234375 0.171875 -0.015625 C 0.160156 -0.00390625 0.144531 0 0.125 0 Z M 0.125 0 "/></g></g></g></svg>