<svg xmlns="http://www.w3.org/2000/svg" xmlns:xlink="http://www.w3.org/1999/xlink" width="500" zoomAndPan="magnify" viewBox="0 0 375 374.999991" height="500" preserveAspectRatio="xMidYMid meet" version="1.0"><defs><g/><clipPath id="0d1c8b9287"><path d="M 3.4375 24 L 371.6875 24 L 371.6875 351 L 3.4375 351 Z M 3.4375 24 " clip-rule="nonzero"/></clipPath></defs><g clip-path="url(#0d1c8b9287)"><path fill="#00d8ff" d="M 305.96875 129.929688 C 302.164062 128.617188 298.214844 127.378906 294.136719 126.203125 C 294.8125 123.476562 295.429688 120.789062 295.976562 118.144531 C 304.917969 74.710938 299.078125 39.722656 279.078125 28.203125 C 259.902344 17.15625 228.550781 28.671875 196.882812 56.207031 C 193.835938 58.855469 190.78125 61.65625 187.738281 64.59375 C 185.699219 62.652344 183.675781 60.773438 181.648438 58.976562 C 148.460938 29.535156 115.195312 17.128906 95.222656 28.683594 C 76.066406 39.761719 70.394531 72.652344 78.457031 113.8125 C 79.234375 117.789062 80.144531 121.851562 81.171875 125.976562 C 76.464844 127.3125 71.921875 128.738281 67.574219 130.25 C 28.664062 143.804688 3.816406 165.046875 3.816406 187.082031 C 3.816406 209.828125 30.492188 232.660156 71.015625 246.503906 C 74.214844 247.59375 77.53125 248.625 80.953125 249.601562 C 79.84375 254.0625 78.878906 258.4375 78.066406 262.710938 C 70.378906 303.15625 76.382812 335.269531 95.484375 346.273438 C 115.214844 357.644531 148.332031 345.957031 180.574219 317.800781 C 183.128906 315.578125 185.683594 313.210938 188.238281 310.746094 C 191.570312 313.929688 194.886719 316.957031 198.171875 319.796875 C 229.410156 346.644531 260.257812 357.488281 279.339844 346.457031 C 299.046875 335.054688 305.464844 300.546875 297.136719 258.578125 C 296.507812 255.367188 295.761719 252.097656 294.941406 248.769531 C 297.269531 248.082031 299.550781 247.363281 301.773438 246.632812 C 343.90625 232.675781 371.3125 210.144531 371.3125 187.082031 C 371.3125 164.964844 345.660156 143.582031 305.96875 129.929688 Z M 296.835938 231.746094 C 294.828125 232.402344 292.761719 233.050781 290.664062 233.667969 C 286.011719 218.964844 279.738281 203.316406 272.046875 187.152344 C 279.382812 171.375 285.410156 155.933594 289.933594 141.316406 C 293.691406 142.40625 297.339844 143.550781 300.855469 144.761719 C 334.863281 156.457031 355.609375 173.757812 355.609375 187.082031 C 355.609375 201.265625 333.214844 219.695312 296.835938 231.746094 Z M 281.734375 261.621094 C 285.425781 280.179688 285.941406 296.960938 283.5 310.085938 C 281.320312 321.875 276.910156 329.734375 271.472656 332.875 C 259.886719 339.574219 235.125 330.867188 208.421875 307.90625 C 205.351562 305.265625 202.265625 302.453125 199.179688 299.484375 C 209.527344 288.167969 219.878906 275.015625 229.984375 260.402344 C 247.742188 258.835938 264.523438 256.257812 279.753906 252.742188 C 280.5 255.769531 281.160156 258.722656 281.734375 261.621094 Z M 129.109375 331.714844 C 117.792969 335.714844 108.78125 335.832031 103.335938 332.6875 C 91.742188 326.003906 86.921875 300.21875 93.496094 265.636719 C 94.25 261.675781 95.144531 257.605469 96.179688 253.445312 C 111.234375 256.773438 127.894531 259.167969 145.703125 260.601562 C 155.875 274.902344 166.523438 288.039062 177.25 299.542969 C 174.910156 301.808594 172.570312 303.960938 170.242188 305.984375 C 155.988281 318.445312 141.703125 327.28125 129.109375 331.714844 Z M 76.101562 231.65625 C 58.179688 225.535156 43.382812 217.585938 33.238281 208.894531 C 24.121094 201.109375 19.519531 193.363281 19.519531 187.082031 C 19.519531 173.710938 39.472656 156.652344 72.746094 145.0625 C 76.78125 143.65625 81.007812 142.332031 85.394531 141.085938 C 89.996094 156.03125 96.027344 171.660156 103.304688 187.453125 C 95.929688 203.488281 89.8125 219.367188 85.167969 234.496094 C 82.042969 233.59375 79.015625 232.648438 76.101562 231.65625 Z M 93.867188 110.800781 C 86.960938 75.535156 91.550781 48.933594 103.09375 42.257812 C 115.386719 35.144531 142.570312 45.285156 171.21875 70.707031 C 173.058594 72.332031 174.894531 74.03125 176.746094 75.792969 C 166.066406 87.246094 155.515625 100.289062 145.433594 114.5 C 128.152344 116.101562 111.605469 118.671875 96.394531 122.113281 C 95.4375 118.269531 94.59375 114.492188 93.867188 110.800781 Z M 252.378906 149.910156 C 248.75 143.636719 245.015625 137.507812 241.210938 131.546875 C 252.941406 133.027344 264.164062 134.996094 274.71875 137.402344 C 271.558594 147.542969 267.609375 158.148438 262.960938 169.023438 C 259.628906 162.695312 256.097656 156.320312 252.378906 149.910156 Z M 187.738281 87 C 194.988281 94.839844 202.238281 103.589844 209.371094 113.085938 C 202.179688 112.746094 194.902344 112.570312 187.566406 112.570312 C 180.300781 112.570312 173.082031 112.742188 165.933594 113.078125 C 173.066406 103.667969 180.386719 94.929688 187.738281 87 Z M 122.683594 150.019531 C 119.050781 156.3125 115.589844 162.652344 112.308594 169.007812 C 107.738281 158.171875 103.824219 147.519531 100.632812 137.234375 C 111.117188 134.890625 122.296875 132.972656 133.949219 131.519531 C 130.089844 137.535156 126.324219 143.707031 122.683594 150.019531 Z M 134.285156 243.75 C 122.246094 242.414062 110.898438 240.59375 100.414062 238.3125 C 103.660156 227.84375 107.65625 216.972656 112.328125 205.898438 C 115.617188 212.253906 119.089844 218.589844 122.746094 224.902344 C 126.46875 231.328125 130.324219 237.609375 134.285156 243.75 Z M 188.167969 288.253906 C 180.734375 280.238281 173.3125 271.359375 166.0625 261.820312 C 173.097656 262.09375 180.273438 262.238281 187.566406 262.238281 C 195.058594 262.238281 202.464844 262.066406 209.746094 261.75 C 202.597656 271.460938 195.359375 280.351562 188.167969 288.253906 Z M 263.105469 205.339844 C 268.011719 216.527344 272.160156 227.339844 275.449219 237.640625 C 264.796875 240.0625 253.285156 242.011719 241.167969 243.476562 C 244.988281 237.4375 248.75 231.199219 252.453125 224.789062 C 256.199219 218.304688 259.746094 211.808594 263.105469 205.339844 Z M 238.84375 216.957031 C 233.101562 226.910156 227.199219 236.40625 221.214844 245.371094 C 210.320312 246.144531 199.050781 246.546875 187.566406 246.546875 C 176.125 246.546875 165 246.203125 154.289062 245.5 C 148.058594 236.421875 142.039062 226.894531 136.332031 217.042969 C 130.636719 207.21875 125.398438 197.308594 120.652344 187.453125 C 125.398438 177.585938 130.625 167.660156 136.285156 157.855469 L 136.28125 157.855469 C 141.957031 148.023438 147.929688 138.542969 154.105469 129.511719 C 165.027344 128.6875 176.238281 128.257812 187.566406 128.257812 C 198.949219 128.257812 210.160156 128.691406 221.085938 129.523438 C 227.171875 138.484375 233.101562 147.9375 238.800781 157.769531 C 244.554688 167.71875 249.855469 177.570312 254.632812 187.238281 C 249.867188 197.0625 244.585938 207.015625 238.84375 216.957031 Z M 271.230469 41.785156 C 283.546875 48.878906 288.324219 77.472656 280.589844 114.972656 C 280.101562 117.367188 279.539062 119.800781 278.9375 122.273438 C 263.691406 118.757812 247.140625 116.140625 229.8125 114.515625 C 219.707031 100.148438 209.242188 87.085938 198.734375 75.78125 C 201.5625 73.066406 204.390625 70.476562 207.191406 68.035156 C 234.320312 44.445312 259.6875 35.128906 271.230469 41.785156 Z M 187.566406 154.285156 C 205.683594 154.285156 220.382812 168.960938 220.382812 187.074219 C 220.382812 205.175781 205.683594 219.863281 187.566406 219.863281 C 169.449219 219.863281 154.75 205.175781 154.75 187.074219 C 154.75 168.960938 169.449219 154.285156 187.566406 154.285156 Z M 187.566406 154.285156 " fill-opacity="1" fill-rule="nonzero"/></g><g fill="#000000" fill-opacity="1"><g transform="translate(192.746697, 186.384768)"><g><path d="M 0.125 0 C 0.113281 0 0.101562 -0.00390625 0.09375 -0.015625 C 0.0820312 -0.0234375 0.078125 -0.0351562 0.078125 -0.046875 C 0.078125 -0.0664062 0.0820312 -0.0820312 0.09375 -0.09375 C 0.101562 -0.101562 0.113281 -0.109375 0.125 -0.109375 C 0.144531 -0.109375 0.160156 -0.101562 0.171875 -0.09375 C 0.179688 -0.0820312 0.1875 -0.0664062 0.1875 -0.046875 C 0.1875 -0.0351562 0.179688 -0.0234375 0.171875 -0.015625 C 0.160156 -0.00390625 0.144531 0 0.125 0 Z M 0.125 0 "/></g></g></g></svg>